<?xml version="1.0" encoding="UTF-8" standalone="no"?>
<!-- Created with Inkscape (http://www.inkscape.org/) -->

<svg
   width="127.34mm"
   height="44.911999mm"
   viewBox="0 0 127.34 44.911998"
   version="1.1"
   id="svg1"
   xml:space="preserve"
   sodipodi:docname="Dark-viaura-logo.svg"
   inkscape:version="1.4 (86a8ad7, 2024-10-11)"
   xmlns:inkscape="http://www.inkscape.org/namespaces/inkscape"
   xmlns:sodipodi="http://sodipodi.sourceforge.net/DTD/sodipodi-0.dtd"
   xmlns="http://www.w3.org/2000/svg"
   xmlns:svg="http://www.w3.org/2000/svg"><sodipodi:namedview
     id="namedview1"
     pagecolor="#ffffff"
     bordercolor="#000000"
     borderopacity="0.25"
     inkscape:showpageshadow="2"
     inkscape:pageopacity="0.0"
     inkscape:pagecheckerboard="0"
     inkscape:deskcolor="#d1d1d1"
     inkscape:document-units="mm"
     inkscape:zoom="1.1061357"
     inkscape:cx="221.4918"
     inkscape:cy="75.488023"
     inkscape:window-width="1920"
     inkscape:window-height="991"
     inkscape:window-x="-9"
     inkscape:window-y="-9"
     inkscape:window-maximized="1"
     inkscape:current-layer="layer1" /><defs
     id="defs1" /><g
     inkscape:label="Layer 1"
     inkscape:groupmode="layer"
     id="layer1"
     transform="translate(-45.104844,-129.4751)"><g
       id="g1"
       transform="matrix(0.26458333,0,0,0.26458333,42.727502,103.66891)"><g
         fill="#272727"
         id="g6"><path
           d="m 345,227.7 c -7.95,-1.6 -12.05,-4.7 -14.8,-11.2 -0.85,-2.05 -0.95,-3.9 -1.1,-19.35 L 328.95,180 h 6.25 6.3 v 14.2 c 0,15.05 0.2,16.55 2.4,18.9 1.75,1.9 4.05,2.55 8.15,2.3 3.85,-0.2 5.55,-1.15 7.2,-3.95 0.95,-1.6 1,-2.75 1.15,-16.6 l 0.15,-14.9 6.1,0.15 6.1,0.15 0.15,14.75 c 0.15,15.5 -0.2,19.5 -1.95,23.25 -1.8,3.75 -5.8,7.1 -10.4,8.6 -2.3,0.7 -13.1,1.3 -15.55,0.85 z"
           id="path1" /><path
           d="M 217.25,226.4 C 215.65,221.9 202,180.75 202,180.45 c 0,-0.3 2.95,-0.4 6.85,-0.35 l 6.85,0.15 1.65,5.25 c 2.3,7.2 6.15,20.75 8.45,29.7 1.3,5.2 2,7.15 2.25,6.5 0.2,-0.5 1.95,-6.85 3.9,-14 1.95,-7.2 4.6,-16.3 5.9,-20.25 l 2.4,-7.2 6.4,-0.15 c 4.8,-0.1 6.45,0.05 6.6,0.5 0.15,0.35 -3.2,10.9 -7.45,23.4 l -7.7,22.75 -10.3,0.15 c -8,0.1 -10.35,0 -10.55,-0.5 z"
           id="path2" /><path
           d="M 258,203.5 V 180 h 6.5 6.5 v 23.5 23.5 h -6.5 -6.5 z"
           id="path3" /><path
           d="m 274.7,226.2 c 0.2,-0.45 3.7,-11.05 7.85,-23.5 l 7.5,-22.7 h 9.9 c 7.35,0 10.05,0.15 10.4,0.65 0.3,0.3 3.9,10.8 8.05,23.25 5.35,16.05 7.35,22.7 6.9,22.9 -0.35,0.1 -3.4,0.15 -6.8,0.1 l -6.2,-0.15 -2.1,-6.5 -2.05,-6.5 -7.8,-0.15 c -7.1,-0.1 -7.8,-0.05 -8.05,0.75 -0.1,0.5 -1.05,3.55 -2.05,6.8 L 288.4,227 h -7 c -6.3,0 -6.95,-0.1 -6.7,-0.8 z m 31.6,-18.8 c -0.2,-0.65 -1.55,-5.85 -3,-11.55 -1.5,-5.75 -2.8,-10.5 -2.95,-10.65 -0.1,-0.15 -1.2,3.65 -2.35,8.4 -1.2,4.75 -2.55,10.05 -3.05,11.8 l -0.9,3.1 h 6.3 c 6.25,0 6.25,0 5.95,-1.1 z"
           id="path4" /><path
           d="m 379.1,203.65 0.15,-23.4 11.75,-0.15 c 17.45,-0.2 22.4,0.75 26.45,5.15 2.2,2.4 3.05,4.75 3.05,8.5 0,6.85 -3.7,10.9 -11.05,12.05 l -2.2,0.35 2.95,0.7 c 1.6,0.35 3.7,1.1 4.6,1.65 1.7,1.1 4.2,5.35 4.2,7.3 0,0.6 0.55,3.3 1.25,6 0.7,2.7 1.25,5 1.25,5.05 0,0.1 -2.55,0.15 -5.7,0.15 h -5.7 l -0.55,-1.65 c -0.3,-0.9 -1,-3.95 -1.55,-6.75 -1.55,-8.35 -3.1,-9.6 -11.5,-9.6 h -5 v 9 9 H 385.25 379 Z m 27.4,-1.05 c 2,-1 2.85,-3.3 2.3,-6.25 -0.55,-2.9 -2.2,-3.5 -10.4,-3.75 l -6.9,-0.2 v 5.55 5.55 h 6.65 c 5.3,0 6.95,-0.2 8.35,-0.9 z"
           id="path5" /><path
           d="m 423.5,226.9 c 0,-0.1 3.45,-10.6 7.7,-23.4 l 7.65,-23.25 9.9,-0.15 c 5.45,-0.05 10.1,0.05 10.35,0.3 0.5,0.5 15.4,45 15.4,46 0,0.5 -1.5,0.6 -6.6,0.5 l -6.6,-0.15 -2.2,-6.6 -2.15,-6.65 h -7.7 -7.7 l -2.1,6.75 -2.15,6.75 h -6.9 c -3.8,0 -6.9,-0.05 -6.9,-0.1 z m 31.8,-19.25 c -0.75,-2.45 -3.8,-14 -4.85,-18.25 -0.6,-2.7 -1.2,-4.8 -1.3,-4.7 -0.15,0.1 -0.85,2.85 -1.6,6.1 -1.3,5.4 -3.65,14.6 -4.35,16.85 -0.25,0.8 0.25,0.85 6.05,0.85 5.8,0 6.3,-0.05 6.05,-0.85 z"
           id="path6" /></g><g
         fill="#885ddd"
         id="g20"><path
           d="m 360.15,255.15 c -1.15,-0.45 -0.7,-1.55 0.85,-2.1 1.5,-0.5 1.5,-0.5 1.5,-4.5 0,-3.7 0.1,-4.05 1,-4.05 0.95,0 1,0.35 1,4.45 0,3.4 -0.2,4.65 -0.8,5.25 -0.4,0.45 -0.95,0.8 -1.2,0.8 -0.25,0 -0.7,0.1 -1.1,0.2 -0.35,0.15 -0.95,0.1 -1.25,-0.05 z"
           id="path7" /><path
           d="m 267.25,253.8 c -1.4,-1.4 -2.05,-4.2 -1.4,-6.1 1,-3.05 5.45,-4.45 7.65,-2.45 1.15,1.05 1.35,2.75 0.25,2.75 -0.4,0 -0.75,-0.25 -0.75,-0.5 0,-0.3 -0.55,-0.75 -1.25,-1.1 -0.95,-0.45 -1.45,-0.4 -2.5,0.3 -2.35,1.55 -1.2,6.8 1.5,6.8 0.4,0 1.15,-0.45 1.6,-1 0.5,-0.55 1.15,-1 1.5,-1 1.15,0 1.25,1.1 0.1,2.3 -1.6,1.7 -5,1.7 -6.7,0 z"
           id="path8" /><path
           d="m 278.6,253.9 c -3,-3.25 -2.2,-7.95 1.7,-9.4 4.95,-1.9 9,4.95 5.25,8.95 -1.2,1.3 -1.85,1.55 -3.65,1.55 -1.65,0 -2.5,-0.3 -3.3,-1.1 z m 4.85,-1.25 c 0.55,-0.5 1.2,-1.6 1.35,-2.5 0.25,-1.3 0.05,-1.85 -0.95,-2.85 -1.55,-1.55 -2.5,-1.65 -3.85,-0.3 -1.9,1.9 -0.7,6.5 1.7,6.5 0.4,0 1.15,-0.4 1.75,-0.85 z"
           id="path9" /><path
           d="m 290.1,254.2 c -1,-0.7 -1.1,-1.15 -1.1,-5.25 0,-4.1 0.05,-4.45 1,-4.45 0.9,0 1,0.35 1,4 0,3.85 0.05,4.05 1.3,4.5 1.6,0.65 1.5,0.65 2.4,-0.3 0.6,-0.55 0.8,-1.8 0.8,-4.5 0,-3.35 0.1,-3.7 1,-3.7 0.9,0 1,0.35 1,4.25 0,3.6 -0.15,4.4 -1,5.25 -1.25,1.25 -4.75,1.35 -6.4,0.2 z"
           id="path10" /><path
           d="m 300.2,249.75 -0.05,-5.25 H 303 c 3.45,0 5,0.95 5,3.1 0,0.85 -0.4,2 -0.85,2.5 -0.85,0.95 -0.85,1.05 0,2.5 1.1,1.9 1.05,2.4 -0.15,2.4 -0.65,0 -1.35,-0.7 -2,-2 -0.55,-1.1 -1.35,-2 -1.75,-2 -0.55,0 -0.75,0.55 -0.75,2 0,1.75 -0.15,2 -1.15,2 -1.05,0 -1.1,-0.15 -1.15,-5.25 z m 5.5,-1.4 c 0.45,-0.75 0.35,-1.05 -0.4,-1.65 -1.8,-1.3 -2.8,-0.9 -2.8,1.1 0,1.6 0.1,1.75 1.3,1.6 0.75,-0.1 1.6,-0.55 1.9,-1.05 z"
           id="path11" /><path
           d="m 310.85,254.1 c -1.05,-1.15 -1.05,-1.4 -0.05,-1.8 0.4,-0.15 1.3,0.05 1.95,0.5 0.8,0.5 1.7,0.7 2.55,0.5 1.95,-0.5 1.3,-1.9 -1.25,-2.65 -2.9,-0.85 -3.55,-1.45 -3.55,-3.5 0,-1.5 0.25,-1.8 1.85,-2.45 1.5,-0.65 2.2,-0.7 3.8,-0.2 2,0.6 2.85,1.7 1.95,2.6 -0.35,0.35 -0.9,0.2 -1.8,-0.35 -0.8,-0.55 -1.75,-0.75 -2.55,-0.55 -2.1,0.55 -1.45,1.65 1.5,2.55 3.7,1.05 4.8,3.2 2.75,5.25 -1.35,1.35 -5.95,1.4 -7.15,0.1 z"
           id="path12" /><path
           d="m 321,249.75 v -5.25 h 3.75 c 3.25,0 3.75,0.1 3.75,0.9 0,0.7 -0.45,0.85 -2.65,0.85 -2.3,0.05 -2.6,0.15 -2.75,1.15 -0.15,1 0.05,1.1 2.35,1.1 2.2,0 2.55,0.15 2.55,1 0,0.85 -0.35,1 -2.55,1 -2.45,0 -2.5,0.05 -2.35,1.35 0.15,1.25 0.3,1.35 2.45,1.3 2.5,-0.05 3.75,0.45 3.25,1.3 -0.2,0.3 -1.9,0.55 -4.1,0.55 H 321 Z"
           id="path13" /><path
           d="m 330.75,254 c -0.7,-0.8 -0.8,-1.15 -0.35,-1.6 0.45,-0.45 0.95,-0.4 2.15,0.3 0.95,0.55 1.95,0.8 2.75,0.6 1.7,-0.45 1.35,-1.9 -0.55,-2.45 -3.3,-0.95 -4,-1.55 -4.15,-3.4 -0.15,-1.65 0,-1.9 1.7,-2.7 1.55,-0.75 2.15,-0.75 3.8,-0.3 2.05,0.65 3,1.9 1.9,2.55 -0.4,0.25 -1.15,0.1 -1.85,-0.35 -1.35,-0.9 -3.65,-0.5 -3.65,0.6 0,0.4 0.85,0.95 2.15,1.25 4.25,1.15 5.6,3.25 3.35,5.5 -1.4,1.4 -5.95,1.4 -7.25,0 z"
           id="path14" /><path
           d="m 345.8,254.05 c -1.1,-1.2 -1,-2.7 0.2,-3.8 0.6,-0.55 1,-1.55 1,-2.55 0,-1.15 0.3,-1.85 0.95,-2.2 1.4,-0.7 1.9,-0.65 3.05,0.5 1.25,1.25 1.25,1.7 -0.1,3 -1.05,0.95 -1.05,1.05 -0.25,1.85 0.8,0.8 0.85,0.8 0.85,0 0,-0.5 0.4,-0.85 1,-0.85 1.15,0 1.25,0.6 0.45,2.1 -0.45,0.85 -0.4,1.15 0.25,1.5 1.45,0.8 0.4,1.25 -3.1,1.3 -2.75,0.05 -3.65,-0.1 -4.3,-0.85 z m 3.7,-1.15 c -0.05,-1.05 -1.4,-2.55 -1.95,-2.15 -0.6,0.35 -0.75,1.9 -0.2,2.4 0.55,0.6 2.15,0.4 2.15,-0.25 z m 0.5,-5.7 c 0,-0.45 -0.25,-0.7 -0.6,-0.6 -0.9,0.3 -1.05,1.4 -0.2,1.4 0.45,0 0.8,-0.35 0.8,-0.8 z"
           id="path15" /><path
           d="m 367.8,253.45 c -3.75,-4.45 0.8,-11.1 5.95,-8.65 3,1.4 3.75,5.9 1.45,8.65 -1.1,1.35 -1.6,1.55 -3.7,1.55 -2.1,0 -2.6,-0.2 -3.7,-1.55 z m 5.7,-0.95 c 2,-2 0.7,-6.5 -1.9,-6.5 -1.5,0 -2.6,1.15 -2.9,3.1 -0.25,1.5 -0.1,2.05 0.95,3.1 1.55,1.55 2.5,1.65 3.85,0.3 z"
           id="path16" /><path
           d="m 379,249.75 v -5.25 h 3.15 c 2.45,0 3.4,0.2 4,0.9 1.05,1.15 1.1,2.3 0.15,3.05 -0.65,0.55 -0.6,0.75 0.25,1.6 1.25,1.25 1.2,2.7 -0.05,3.95 -0.8,0.8 -1.65,1 -4.25,1 H 379 Z m 5.7,3 c 1.05,-1.05 0.5,-2.1 -1.25,-2.5 -1.9,-0.4 -2.45,0 -2.45,1.8 0,1.25 0.2,1.45 1.45,1.45 0.8,0 1.8,-0.35 2.25,-0.75 z m 0,-5 c 0.3,-0.85 -1.1,-1.75 -2.65,-1.75 -0.8,0 -1.05,0.3 -1.05,1.25 0,1.1 0.2,1.25 1.7,1.25 1.05,0 1.8,-0.3 2,-0.75 z"
           id="path17" /><path
           d="m 389.95,254.05 c -0.95,-0.8 -1.1,-1.1 -0.55,-1.6 0.5,-0.55 0.9,-0.5 2.15,0.25 0.95,0.55 1.95,0.8 2.75,0.6 1.95,-0.5 1.3,-1.9 -1.25,-2.65 -3.05,-0.85 -3.65,-1.5 -3.45,-3.6 0.15,-1.6 0.35,-1.9 2.15,-2.5 1.8,-0.6 2.25,-0.6 3.9,0.2 1.8,0.85 2.35,1.9 1.35,2.5 -0.25,0.15 -1.05,-0.1 -1.75,-0.55 -0.8,-0.5 -1.7,-0.7 -2.5,-0.5 -2.1,0.55 -1.45,1.65 1.5,2.55 3.7,1.05 4.8,3.2 2.75,5.25 -1.35,1.35 -5.4,1.4 -7.05,0.05 z"
           id="path18" /><path
           d="m 112.55,251.15 c 0.1,-4.2 -2.35,-19.65 -3.6,-22.4 -0.25,-0.55 -0.9,-2.45 -1.5,-4.25 -0.55,-1.8 -2.1,-5.55 -3.5,-8.4 -2.3,-4.9 -3.15,-8.6 -1.95,-8.6 0.3,0 0.5,0.25 0.5,0.5 0,1.25 1,0.2 3.2,-3.25 9.5,-15.05 25.75,-28.4 42.65,-35.2 C 157.15,166 171.6,163 179.9,163 h 2.1 l -0.1,20.15 -0.15,20.1 -2.25,0.1 c -23,1.25 -42.1,17.6 -46.7,40.05 -0.4,1.85 -0.85,4.85 -1.05,6.75 l -0.35,3.35 h -9.45 -9.5 z"
           id="path19" /><path
           d="m 92.25,152.3 c -6.7,-1.55 -13.15,-4.8 -18,-9.05 l -2.5,-2.2 14.5,-14.5 c 7.95,-8 14.7,-14.55 15,-14.55 0.65,0 28.75,28.15 28.75,28.8 0,0.7 -3.3,3.75 -6.15,5.65 -3.05,2.05 -6.95,3.85 -11.2,5.15 -4.45,1.3 -15.95,1.7 -20.4,0.7 z"
           id="path20" /></g><g
         fill="#a986ed"
         id="g22"><path
           d="M 73.6,248.4 C 72.25,236.25 67.15,225.65 58.65,217.45 50.05,209.1 39.2,204.1 27.5,203.1 l -4.05,-0.35 0.05,-20.2 c 0,-11.15 0.05,-20.3 0.15,-20.35 0.05,-0.05 2.9,0.1 6.35,0.35 25.1,1.9 47.1,13.25 63.55,32.8 3.65,4.3 9.45,12.95 9.45,14 0,0.35 0.25,0.65 0.55,0.65 0.25,0 0.35,0.25 0.2,0.5 -0.15,0.3 -0.05,0.5 0.25,0.5 0.3,0 0.4,0.25 0.25,0.5 -0.15,0.3 -0.05,0.5 0.25,0.5 0.3,0 0.4,0.25 0.25,0.5 -0.15,0.3 -0.05,0.5 0.25,0.5 0.3,0 0.4,0.25 0.25,0.5 -0.15,0.3 -0.05,0.5 0.3,0.5 0.35,0 0.45,0.15 0.3,0.3 -0.15,0.2 -0.05,0.8 0.25,1.4 0.35,0.55 0.55,1.2 0.5,1.45 -0.05,0.2 0.15,0.35 0.4,0.35 0.25,0 0.45,0.15 0.4,0.4 -0.05,0.2 0.15,0.85 0.5,1.5 0.35,0.6 0.5,1.1 0.35,1.1 -0.15,0 0,0.5 0.35,1.15 0.35,0.6 0.7,1.35 0.7,1.6 0.05,0.3 0.15,0.65 0.2,0.9 0.05,0.2 0.2,0.6 0.25,0.85 0.05,0.3 0.2,0.6 0.25,0.75 0.05,0.15 0.15,0.4 0.25,0.65 0.05,0.2 0.35,1 0.7,1.8 0.3,0.8 0.45,1.55 0.3,1.7 -0.1,0.15 0,0.55 0.3,0.9 0.3,0.4 0.45,1 0.3,1.45 -0.2,0.4 -0.1,0.85 0.15,1 0.25,0.15 0.45,0.65 0.45,1.15 0,0.45 0.15,1.55 0.3,2.35 0.4,1.75 0.7,4.05 1,7.25 0.1,1.25 0.35,3.1 0.55,4.1 0.15,1 0.15,2.65 0,3.6 l -0.35,1.8 h -19.9 -19.9 z"
           id="path21" /><path
           d="m 326.5,250 c 0,-0.25 0.35,-0.5 0.75,-0.5 0.4,0 0.75,0.25 0.75,0.5 0,0.3 -0.35,0.5 -0.75,0.5 -0.4,0 -0.75,-0.2 -0.75,-0.5 z"
           id="path22" /></g></g></g></svg>
