<?xml version="1.0" encoding="UTF-8" standalone="no"?>
<!-- Created with Inkscape (http://www.inkscape.org/) -->

<svg
   width="44.578999mm"
   height="40.438999mm"
   viewBox="0 0 44.579001 40.438999"
   version="1.1"
   id="svg1"
   xml:space="preserve"
   sodipodi:docname="LOGO.svg"
   inkscape:version="1.4 (86a8ad7, 2024-10-11)"
   xmlns:inkscape="http://www.inkscape.org/namespaces/inkscape"
   xmlns:sodipodi="http://sodipodi.sourceforge.net/DTD/sodipodi-0.dtd"
   xmlns="http://www.w3.org/2000/svg"
   xmlns:svg="http://www.w3.org/2000/svg"><sodipodi:namedview
     id="namedview1"
     pagecolor="#ffffff"
     bordercolor="#000000"
     borderopacity="0.25"
     inkscape:showpageshadow="2"
     inkscape:pageopacity="0.0"
     inkscape:pagecheckerboard="0"
     inkscape:deskcolor="#d1d1d1"
     inkscape:document-units="mm"
     inkscape:zoom="3.1286243"
     inkscape:cx="116.34506"
     inkscape:cy="89.336389"
     inkscape:window-width="1920"
     inkscape:window-height="991"
     inkscape:window-x="-9"
     inkscape:window-y="-9"
     inkscape:window-maximized="1"
     inkscape:current-layer="layer1" /><defs
     id="defs1" /><g
     inkscape:label="Layer 1"
     inkscape:groupmode="layer"
     id="layer1"
     transform="translate(-51.350596,-131.53384)"><g
       id="g272"
       transform="translate(14.376659,52.686228)"><g
         id="g271"><g
           id="g270"><g
             id="g269"><g
               id="g268"><g
                 id="g267"><g
                   id="g266"><g
                     id="g265"><g
                       id="g264"><g
                         id="g263"><g
                           id="g262"><g
                             id="g261"><g
                               id="g260"><g
                                 id="g259"><g
                                   id="g258"><g
                                   id="g257"><g
                                   id="g256"><g
                                   id="g255"><g
                                   id="g254"><g
                                   id="g253"><g
                                   id="g252"><g
                                   id="g251"><g
                                   id="g250"><g
                                   id="g249"><g
                                   id="g248"><g
                                   id="g247"><g
                                   id="g246"><g
                                   id="g245"><g
                                   id="g244"><g
                                   id="g243"><g
                                   id="g242"><g
                                   id="g241"><g
                                   id="g240"><g
                                   id="g239"><g
                                   id="g238"><g
                                   id="g237"><g
                                   id="g236"><g
                                   id="g235"><g
                                   id="g234"><g
                                   id="g233"><g
                                   id="g232"><g
                                   id="g231"><g
                                   id="g230"><g
                                   id="g229"><g
                                   id="g228"><g
                                   id="g227"><g
                                   id="g226"><g
                                   id="g225"><g
                                   id="g224"><g
                                   id="g223"><g
                                   id="g222"><g
                                   id="g221"><g
                                   id="g220"><g
                                   id="g219"><g
                                   id="g218"><g
                                   id="g217"><g
                                   id="g216"><g
                                   id="g215"><g
                                   id="g214"><g
                                   id="g213"><g
                                   id="g212"><g
                                   id="g211"><g
                                   id="g210"><g
                                   id="g209"><g
                                   id="g208"><g
                                   id="g207"><g
                                   id="g206"><g
                                   id="g205"><g
                                   id="g204"><g
                                   id="g203"><g
                                   id="g202"><g
                                   id="g201"><g
                                   id="g200"><g
                                   id="g199"><g
                                   id="g198"><g
                                   id="g197"><g
                                   id="g196"><g
                                   id="g195"><g
                                   id="g194"><g
                                   id="g193"><g
                                   id="g192"><g
                                   id="g191"><g
                                   id="g189"><g
                                   id="g188"><g
                                   id="g187"><g
                                   id="g186"><g
                                   id="g185"><g
                                   id="g184"><g
                                   id="g183"><g
                                   id="g182"><g
                                   id="g181"><path
                                   d="m 61.503336,117.01748 c 0.02646,-1.11125 -0.621771,-5.19906 -0.9525,-5.92667 -0.06615,-0.14552 -0.238125,-0.64822 -0.396875,-1.12447 -0.145521,-0.47625 -0.555625,-1.46844 -0.926042,-2.2225 -0.608542,-1.29646 -0.833437,-2.27542 -0.515937,-2.27542 0.07937,0 0.132291,0.0661 0.132291,0.13229 0,0.33073 0.264584,0.0529 0.846667,-0.8599 2.513542,-3.98197 6.813021,-7.514162 11.284479,-9.313328 2.328333,-0.939271 6.151562,-1.733021 8.347604,-1.733021 h 0.555625 l -0.02646,5.331354 -0.03969,5.318125 -0.595312,0.0265 c -6.085417,0.33073 -11.138958,4.65666 -12.356042,10.59656 -0.105833,0.48948 -0.224896,1.28323 -0.277812,1.78594 l -0.0926,0.88635 h -2.500313 -2.513542 z"
                                   id="path19"
                                   style="fill:#885ddd;stroke-width:0.264583" /><path
                                   d="m 56.132294,90.863419 c -1.772708,-0.410104 -3.479271,-1.27 -4.7625,-2.394479 l -0.661458,-0.582083 3.836458,-3.836459 c 2.103438,-2.116666 3.889375,-3.849687 3.96875,-3.849687 0.171979,0 7.606771,7.448021 7.606771,7.62 0,0.185208 -0.873125,0.992187 -1.627188,1.494896 -0.806979,0.542396 -1.838854,1.018645 -2.963333,1.362604 -1.177396,0.343958 -4.220104,0.449791 -5.3975,0.185208 z"
                                   id="path20"
                                   style="fill:#885ddd;stroke-width:0.264583" /></g></g></g></g></g></g></g></g></g></g></g></g></g></g></g></g></g></g></g></g></g></g></g></g></g></g></g></g></g></g></g></g></g></g></g></g></g></g></g></g></g></g></g></g></g></g></g></g></g></g></g></g></g></g></g></g></g></g></g></g></g></g></g></g></g></g></g></g></g></g></g></g></g></g></g></g></g></g></g></g></g></g></g></g></g></g></g></g></g></g><g
         id="g190"><g
           fill="#a986ed"
           id="g22"
           transform="matrix(0.26458333,0,0,0.26458333,31.784281,50.56738)"><path
             d="M 73.6,248.4 C 72.25,236.25 67.15,225.65 58.65,217.45 50.05,209.1 39.2,204.1 27.5,203.1 l -4.05,-0.35 0.05,-20.2 c 0,-11.15 0.05,-20.3 0.15,-20.35 0.05,-0.05 2.9,0.1 6.35,0.35 25.1,1.9 47.1,13.25 63.55,32.8 3.65,4.3 9.45,12.95 9.45,14 0,0.35 0.25,0.65 0.55,0.65 0.25,0 0.35,0.25 0.2,0.5 -0.15,0.3 -0.05,0.5 0.25,0.5 0.3,0 0.4,0.25 0.25,0.5 -0.15,0.3 -0.05,0.5 0.25,0.5 0.3,0 0.4,0.25 0.25,0.5 -0.15,0.3 -0.05,0.5 0.25,0.5 0.3,0 0.4,0.25 0.25,0.5 -0.15,0.3 -0.05,0.5 0.3,0.5 0.35,0 0.45,0.15 0.3,0.3 -0.15,0.2 -0.05,0.8 0.25,1.4 0.35,0.55 0.55,1.2 0.5,1.45 -0.05,0.2 0.15,0.35 0.4,0.35 0.25,0 0.45,0.15 0.4,0.4 -0.05,0.2 0.15,0.85 0.5,1.5 0.35,0.6 0.5,1.1 0.35,1.1 -0.15,0 0,0.5 0.35,1.15 0.35,0.6 0.7,1.35 0.7,1.6 0.05,0.3 0.15,0.65 0.2,0.9 0.05,0.2 0.2,0.6 0.25,0.85 0.05,0.3 0.2,0.6 0.25,0.75 0.05,0.15 0.15,0.4 0.25,0.65 0.05,0.2 0.35,1 0.7,1.8 0.3,0.8 0.45,1.55 0.3,1.7 -0.1,0.15 0,0.55 0.3,0.9 0.3,0.4 0.45,1 0.3,1.45 -0.2,0.4 -0.1,0.85 0.15,1 0.25,0.15 0.45,0.65 0.45,1.15 0,0.45 0.15,1.55 0.3,2.35 0.4,1.75 0.7,4.05 1,7.25 0.1,1.25 0.35,3.1 0.55,4.1 0.15,1 0.15,2.65 0,3.6 l -0.35,1.8 h -19.9 -19.9 z"
             id="path21" /><path
             d="m 326.5,250 c 0,-0.25 0.35,-0.5 0.75,-0.5 0.4,0 0.75,0.25 0.75,0.5 0,0.3 -0.35,0.5 -0.75,0.5 -0.4,0 -0.75,-0.2 -0.75,-0.5 z"
             id="path22" /></g></g></g></g></svg>
